<?xml version="1.0" encoding="utf-8"?>
<!-- Generator: Adobe Illustrator 21.0.0, SVG Export Plug-In . SVG Version: 6.00 Build 0)  -->
<svg version="1.1" id="图层_1" xmlns="http://www.w3.org/2000/svg" xmlns:xlink="http://www.w3.org/1999/xlink" x="0px" y="0px"
	 viewBox="0 0 1024 1024" style="enable-background:new 0 0 1024 1024;" xml:space="preserve">
<style type="text/css">
	.st0{fill:#40B6FF;}
	.st1{fill:#FFFFFF;}
</style>
<g>
	<circle class="st0" cx="512" cy="512" r="448"/>
	<g>
		<path class="st1" d="M701.5,544h-380c-17.6,0-32-14.4-32-32v0c0-17.6,14.4-32,32-32h380c17.6,0,32,14.4,32,32v0
			C733.5,529.6,719.1,544,701.5,544z"/>
		<path class="st1" d="M543.5,322v380c0,17.6-14.4,32-32,32h0c-17.6,0-32-14.4-32-32V322c0-17.6,14.4-32,32-32h0
			C529.1,290,543.5,304.4,543.5,322z"/>
	</g>
</g>
</svg>
