<?xml version="1.0" standalone="no"?><!DOCTYPE svg PUBLIC "-//W3C//DTD SVG 1.1//EN" "http://www.w3.org/Graphics/SVG/1.1/DTD/svg11.dtd"><svg class="icon" width="200px" height="200.00px" viewBox="0 0 1024 1024" version="1.1" xmlns="http://www.w3.org/2000/svg"><path d="M21.88 856.992a455.342 49.032 0 1 0 910.684 0 455.342 49.032 0 1 0-910.684 0Z" fill="#E0E0E0" /><path d="M772.852 659.43V186.042c0-25.329-20.605-45.934-45.934-45.934H71.459c-25.329 0-45.945 20.605-45.945 45.934V659.43c0 25.329 20.615 45.945 45.945 45.945h281.785v126.604H253.53c-5.259 0-9.533 4.274-9.533 9.522 0 5.259 4.274 9.532 9.533 9.532h291.318c5.259 0 9.533-4.274 9.533-9.532 0-5.248-4.274-9.522-9.533-9.522h-99.714V705.375h281.785c25.328 0 45.933-20.615 45.933-45.945zM426.068 831.979h-53.759V705.375h53.759v126.604z" fill="#CACACA" /><path d="M753.811 596.157v63.261c0 14.807-12.044 26.907-26.906 26.907H71.473c-14.862 0-26.906-12.1-26.906-26.907v-63.261h709.244zM753.811 186.036v391.06H44.567v-391.06c0-14.807 12.044-26.851 26.906-26.851h655.432c14.862 0 26.906 12.044 26.906 26.851z" fill="#F2F2F2" /><path d="M372.309 705.375h53.759v126.604h-53.759z" fill="#FFFFFF" /><path d="M987.188 556.985l-61.88-10.719c-1.326-3.812-2.928-7.569-4.806-12.1l36.409-50.609c4.697-6.52 3.978-15.47-1.713-21.271l-61.659-61.549c-5.691-5.691-14.641-6.409-21.27-1.713l-51.328 36.299c-3.703-1.768-7.459-3.37-11.88-5.249l-10.22-61.327c-1.271-8.011-8.123-13.813-16.245-13.813h-87.019a16.339 16.339 0 0 0-16.188 13.813l-10.829 61.88c-4.033 1.437-7.791 3.039-12.321 4.807l-50.223-35.747c-6.519-4.641-15.47-3.923-21.16 1.768l-61.549 61.383c-5.802 5.635-6.519 14.586-1.768 21.216l35.968 50.941c-1.656 3.702-3.259 7.459-5.138 11.879l-61.383 10.111a16.553 16.553 0 0 0-13.756 16.354v87.019c0 8.066 5.8 14.917 13.756 16.188l61.992 10.719c1.492 4.144 3.093 8.232 5.083 12.984l-36.023 50.057c-4.697 6.519-3.978 15.47 1.824 21.271l61.548 61.549c5.691 5.691 14.642 6.464 21.272 1.713l51.106-36.189a673.176 673.176 0 0 0 11.38 4.807l10.222 61.493c1.271 7.956 8.122 13.757 16.188 13.757h87.019c8.122 0 14.974-5.801 16.245-13.757l10.718-61.99c4.088-1.492 8.011-3.149 12.652-5.083l50.609 36.41c6.63 4.751 15.581 4.144 21.272-1.657l61.659-61.549c5.691-5.801 6.409-14.641 1.658-21.271l-36.521-51.659c1.602-3.591 3.094-7.072 4.973-11.381l61.216-10.221c8.123-1.271 13.923-8.177 13.923-16.299v-86.908c-0.001-8.125-5.801-14.976-13.813-16.357z m-1.989 103.263l-0.608 0.718-61.383 10.221c-5.855 0.939-10.718 5.138-12.817 10.829a109.428 109.428 0 0 1-3.923 9.613c-2.377 5.359-1.768 11.658 1.602 16.409l36.52 51.88-62.543 61.659-50.609-36.41c-4.807-3.591-11.271-4.088-16.852-1.492-3.314 1.713-6.796 3.149-10.386 4.42-5.58 1.989-9.779 6.961-10.72 12.763l-10.884 62.046-87.626-0.608-10.222-61.328c-0.939-5.912-5.138-10.773-10.829-12.873a118.815 118.815 0 0 1-9.558-3.868c-2.211-0.939-4.531-1.492-6.851-1.492-3.371 0-6.74 1.05-9.613 3.039l-51.328 36.189-61.659-62.488 35.857-50.112c3.48-4.807 4.033-11.216 1.492-16.686-1.713-3.481-3.15-7.072-4.42-10.663-1.99-5.691-6.962-9.89-12.874-10.829l-61.935-10.829 0.498-87.792 61.437-10.111c5.912-0.939 10.884-5.138 12.874-10.939 1.16-3.37 2.541-6.63 3.978-9.89 2.541-5.47 1.99-11.768-1.437-16.63l-35.913-51.051 62.433-61.327 50.166 35.692c4.863 3.481 11.271 3.978 16.741 1.436 3.26-1.547 6.52-3.039 10.001-4.199 5.802-2.1 10.001-7.017 10.939-12.929l10.829-61.88 87.682 0.497 10.22 61.383c0.94 5.967 5.139 10.829 10.939 12.929 3.26 1.16 6.52 2.431 9.669 4.033 5.582 2.707 11.99 2.21 16.962-1.381l51.328-36.299 61.659 62.488-36.298 50.499c-3.592 4.972-4.088 11.381-1.381 16.962 1.492 3.149 2.873 6.409 4.033 9.669 1.988 5.801 6.962 10 12.817 10.939l61.992 10.884v86.909z" fill="#CACACA" /><path d="M923.207 562.455c-5.855-0.939-10.829-5.138-12.817-10.939-1.16-3.26-2.541-6.519-4.033-9.669-2.707-5.58-2.211-11.99 1.381-16.962l36.298-50.499-61.659-62.488-51.328 36.299c-4.972 3.591-11.38 4.088-16.962 1.381-3.148-1.602-6.409-2.873-9.669-4.033-5.8-2.1-9.999-6.962-10.939-12.929l-10.22-61.383-87.682-0.497-10.829 61.88c-0.939 5.912-5.138 10.829-10.939 12.929-3.48 1.16-6.74 2.652-10.001 4.199-5.47 2.542-11.878 2.045-16.741-1.436l-50.166-35.692-62.433 61.327 35.913 51.051c3.426 4.862 3.978 11.16 1.437 16.63-1.437 3.26-2.818 6.519-3.978 9.89-1.99 5.801-6.962 10-12.874 10.939l-61.437 10.111-0.498 87.792 61.935 10.829c5.912 0.939 10.884 5.138 12.874 10.829 1.271 3.591 2.707 7.182 4.42 10.663 2.541 5.47 1.988 11.879-1.492 16.686l-35.857 50.112 61.659 62.488 51.328-36.189c2.873-1.989 6.243-3.039 9.613-3.039 2.32 0 4.64 0.553 6.851 1.492a119.335 119.335 0 0 0 9.558 3.868c5.691 2.1 9.89 6.961 10.829 12.873l10.222 61.328 87.626 0.608 10.884-62.046c0.94-5.802 5.139-10.774 10.72-12.763 3.591-1.271 7.072-2.708 10.386-4.42 5.58-2.597 12.044-2.099 16.852 1.492l50.609 36.41 62.543-61.659-36.52-51.88c-3.371-4.751-3.979-11.05-1.602-16.409a109.68 109.68 0 0 0 3.923-9.613c2.099-5.691 6.962-9.89 12.817-10.829l61.383-10.221 0.608-0.718V573.34l-61.993-10.885zM815.305 696.049c-20.719 19.945-47.571 30.83-76.135 30.83-1.492 0-2.928-0.111-4.365-0.111-57.018-2.265-103.373-48.62-105.637-105.638-1.106-30.111 9.778-58.786 30.718-80.499 20.94-21.824 49.063-33.813 79.284-33.813 60.554 0 109.947 49.394 109.947 109.948 0.001 30.221-11.988 58.344-33.812 79.283z" fill="#F2F2F2" /><path d="M849.118 616.766c0 30.222-11.989 58.344-33.812 79.284-20.719 19.945-47.571 30.83-76.135 30.83-1.492 0-2.928-0.111-4.365-0.111-57.018-2.265-103.373-48.62-105.637-105.638-1.106-30.111 9.778-58.786 30.718-80.499 20.94-21.824 49.063-33.813 79.284-33.813 60.553-0.001 109.947 49.393 109.947 109.947z" fill="#E5E5E5" /><path d="M832.335 616.774c0 25.533-10.19 49.386-28.668 67.193-18.478 17.694-42.891 26.877-68.2 25.981-47.483-1.792-87.687-41.995-89.478-89.479-1.009-25.533 8.287-49.723 25.981-68.2 17.806-18.478 41.548-28.669 67.193-28.669 51.289 0 93.172 41.884 93.172 93.174z" fill="#FFFFFF" /><path d="M739.171 506.818c-30.222 0-58.344 11.989-79.284 33.813-20.94 21.713-31.824 50.388-30.718 80.499 2.265 57.018 48.619 103.373 105.637 105.638 1.437 0 2.873 0.111 4.365 0.111 28.564 0 55.416-10.884 76.135-30.83 21.823-20.94 33.812-49.062 33.812-79.284 0-60.553-49.394-109.947-109.947-109.947z m64.476 177.132c-18.454 17.735-42.874 26.907-68.179 26.023-47.459-1.823-87.681-42.045-89.505-89.505-0.994-25.526 8.287-49.725 26.024-68.179 17.789-18.509 41.547-28.674 67.184-28.674 51.272 0 93.151 41.879 93.151 93.151-0.001 25.525-10.166 49.393-28.675 67.184z" fill="#CACACA" /></svg>