<?xml version="1.0" encoding="utf-8"?>
<!-- Generator: Adobe Illustrator 21.0.0, SVG Export Plug-In . SVG Version: 6.00 Build 0)  -->
<svg version="1.1" id="图层_1" xmlns="http://www.w3.org/2000/svg" xmlns:xlink="http://www.w3.org/1999/xlink" x="0px" y="0px"
	 viewBox="0 0 1024 1024" style="enable-background:new 0 0 1024 1024;" xml:space="preserve">
<style type="text/css">
	.st0{display:none;}
	.st1{display:inline;}
	.st2{fill:#FFB600;}
	.st3{fill:#FF8F3B;}
	.st4{fill:#FCDC06;}
	.st5{clip-path:url(#SVGID_2_);fill:#FCDC06;}
	.st6{clip-path:url(#SVGID_2_);fill:#FFB600;}
	.st7{clip-path:url(#SVGID_2_);fill:#FF8F3B;}
	.st8{clip-path:url(#SVGID_4_);fill:#FF8F3B;}
	.st9{clip-path:url(#SVGID_4_);fill:#FCDC06;}
	.st10{fill:#FE881F;}
</style>
<g class="st0">
	<path class="st1" d="M514.1,405h-4.3c-16.5,0-29.9-13.4-29.9-29.9V74.9c0-16.5,13.4-29.9,29.9-29.9h4.3c16.5,0,29.9,13.4,29.9,29.9
		v300.3C544,391.6,530.6,405,514.1,405z"/>
	<path class="st1" d="M512,978.9c-57.7,0-113.8-11.3-166.5-33.6c-50.9-21.5-96.7-52.4-136-91.7c-39.3-39.3-70.1-85-91.7-136
		c-22.3-52.8-33.6-108.8-33.6-166.5c0-89.3,27.3-174.9,78.8-247.5c24.8-34.9,54.6-65.9,88.7-92c25.2-19.3,52.2-35.7,80.8-48.9
		c17-7.9,37,0.4,43.5,18v0c5.7,15.6-1.5,33.1-16.6,40.1c-57.6,26.6-107,67.6-144.2,119.9c-43.8,61.7-67,134.5-67,210.4
		c0,97.2,37.8,188.5,106.5,257.2c68.7,68.7,160.1,106.5,257.2,106.5s188.5-37.8,257.2-106.5c68.7-68.7,106.5-160.1,106.5-257.2
		c0-79.3-25.1-154.6-72.4-217.9c-22.8-30.5-50.1-57.1-81.2-79.1c-23.4-16.6-48.6-30.3-75-40.9c-15.4-6.2-23.4-23.2-18.5-39.1v0
		c5.5-17.9,25.2-27.2,42.6-20.2c31,12.4,60.5,28.5,88,48c36.5,25.9,68.5,57.1,95.4,92.9c27.1,36.2,48.2,76.2,62.7,118.9
		c15,44.1,22.5,90.4,22.5,137.4c0,57.7-11.3,113.8-33.6,166.5c-21.5,50.9-52.4,96.7-91.7,136c-39.3,39.3-85,70.1-136,91.7
		C625.8,967.6,569.7,978.9,512,978.9z"/>
</g>
<g>
	<path class="st2" d="M152.5,604.3c0,64.1,122,116,272.5,116c150.5,0,272.5-51.9,272.5-116c0-64.1-122-116-272.5-116
		C274.5,488.2,152.5,540.2,152.5,604.3L152.5,604.3z M152.5,604.3"/>
	<path class="st2" d="M152.5,608.8c0,64.1,122,116,272.5,116c150.5,0,272.5-51.9,272.5-116c0-64.1-122-116-272.5-116
		C274.5,492.8,152.5,544.7,152.5,608.8L152.5,608.8z M152.5,608.8"/>
	<path class="st3" d="M152.5,613.4c0,64.1,122,116,272.5,116c150.5,0,272.5-51.9,272.5-116s-122-116-272.5-116
		C274.5,497.3,152.5,549.3,152.5,613.4L152.5,613.4z M152.5,613.4"/>
	<path class="st4" d="M152.5,600.1c0,64.1,122,116,272.5,116c150.5,0,272.5-51.9,272.5-116c0-64.1-122-116-272.5-116
		C274.5,484.1,152.5,536.1,152.5,600.1L152.5,600.1z M152.5,600.1"/>
	<path class="st2" d="M186.3,570.8c0,64.1,122,116,272.5,116c150.5,0,272.5-51.9,272.5-116c0-64.1-122-116-272.5-116
		C308.3,454.8,186.3,506.7,186.3,570.8L186.3,570.8z M186.3,570.8"/>
	<path class="st2" d="M186.3,575.4c0,64.1,122,116,272.5,116c150.5,0,272.5-51.9,272.5-116c0-64.1-122-116-272.5-116
		C308.3,459.3,186.3,511.3,186.3,575.4L186.3,575.4z M186.3,575.4"/>
	<path class="st3" d="M186.3,579.9c0,64.1,122,116,272.5,116c150.5,0,272.5-51.9,272.5-116c0-64.1-122-116-272.5-116
		C308.3,463.9,186.3,515.8,186.3,579.9L186.3,579.9z M186.3,579.9"/>
	<path class="st4" d="M186.3,566.3c0,64.1,122,116,272.5,116c150.5,0,272.5-51.9,272.5-116c0-64.1-122-116-272.5-116
		C308.3,450.3,186.3,502.2,186.3,566.3L186.3,566.3z M186.3,566.3"/>
	<path class="st2" d="M159.5,532.4c0,64.1,122,116,272.5,116s272.5-51.9,272.5-116c0-64.1-122-116-272.5-116
		S159.5,468.3,159.5,532.4L159.5,532.4z M159.5,532.4"/>
	<path class="st2" d="M159.5,537c0,64.1,122,116,272.5,116S704.5,601,704.5,537c0-64.1-122-116-272.5-116S159.5,472.9,159.5,537
		L159.5,537z M159.5,537"/>
	<path class="st3" d="M159.5,541.5c0,64.1,122,116,272.5,116s272.5-51.9,272.5-116c0-64.1-122-116-272.5-116
		S159.5,477.4,159.5,541.5L159.5,541.5z M159.5,541.5"/>
	<path class="st4" d="M159.5,528.3c0,64.1,122,116,272.5,116s272.5-51.9,272.5-116c0-64.1-122-116-272.5-116
		S159.5,464.2,159.5,528.3L159.5,528.3z M159.5,528.3"/>
	<path class="st2" d="M154.9,469.7c0,64.1,122,116,272.5,116c150.5,0,272.5-51.9,272.5-116c0-64.1-122-116-272.5-116
		C277,353.6,154.9,405.6,154.9,469.7L154.9,469.7z M154.9,469.7"/>
	<path class="st2" d="M154.9,474.2c0,64.1,122,116,272.5,116c150.5,0,272.5-52,272.5-116s-122-116-272.5-116
		C277,358.2,154.9,410.1,154.9,474.2L154.9,474.2z M154.9,474.2"/>
	<path class="st2" d="M154.9,478.7c0,64.1,122,116,272.5,116c150.5,0,272.5-51.9,272.5-116c0-64.1-122-116-272.5-116
		C277,362.7,154.9,414.7,154.9,478.7L154.9,478.7z M154.9,478.7"/>
	<path class="st4" d="M154.9,465.1c0,64.1,122,116,272.5,116c150.5,0,272.5-51.9,272.5-116c0-64.1-122-116-272.5-116
		C277,349.1,154.9,401,154.9,465.1L154.9,465.1z M154.9,465.1"/>
	<path class="st2" d="M134.7,418.1c0,64.1,122,116,272.5,116c150.5,0,272.5-51.9,272.5-116c0-64.1-122-116-272.5-116
		C256.7,302,134.7,354,134.7,418.1L134.7,418.1z M134.7,418.1"/>
	<path class="st2" d="M134.7,422.6c0,64.1,122,116,272.5,116c150.5,0,272.5-51.9,272.5-116c0-64.1-122-116-272.5-116
		C256.7,306.6,134.7,358.5,134.7,422.6L134.7,422.6z M134.7,422.6"/>
	<path class="st2" d="M134.7,427.1c0,64.1,122,116,272.5,116c150.5,0,272.5-51.9,272.5-116s-122-116-272.5-116
		C256.7,311.1,134.7,363.1,134.7,427.1L134.7,427.1z M134.7,427.1"/>
	<path class="st4" d="M134.7,413.5c0,64.1,122,116,272.5,116c150.5,0,272.5-51.9,272.5-116c0-64.1-122-116-272.5-116
		C256.7,297.5,134.7,349.4,134.7,413.5L134.7,413.5z M134.7,413.5"/>
	<path class="st2" d="M154.9,469.7c0,64.1,122,116,272.5,116c150.5,0,272.5-51.9,272.5-116c0-64.1-122-116-272.5-116
		C277,353.6,154.9,405.6,154.9,469.7L154.9,469.7z M154.9,469.7"/>
	<path class="st2" d="M154.9,474.2c0,64.1,122,116,272.5,116c150.5,0,272.5-52,272.5-116s-122-116-272.5-116
		C277,358.2,154.9,410.1,154.9,474.2L154.9,474.2z M154.9,474.2"/>
	<path class="st3" d="M154.9,478.7c0,64.1,122,116,272.5,116c150.5,0,272.5-51.9,272.5-116c0-64.1-122-116-272.5-116
		C277,362.7,154.9,414.7,154.9,478.7L154.9,478.7z M154.9,478.7"/>
	<g>
		<defs>
			<rect id="SVGID_1_" x="112.1" y="223" width="800.9" height="577.9"/>
		</defs>
		<clipPath id="SVGID_2_">
			<use xlink:href="#SVGID_1_"  style="overflow:visible;"/>
		</clipPath>
		<path class="st5" d="M154.9,465.1c0,64.1,122,116,272.5,116c150.5,0,272.5-51.9,272.5-116c0-64.1-122-116-272.5-116
			C277,349.1,154.9,401,154.9,465.1L154.9,465.1z M154.9,465.1"/>
		<path class="st6" d="M112,427.1c0,64.1,122,116,272.5,116c150.5,0,272.5-51.9,272.5-116s-122-116-272.5-116
			C234,311.1,112,363.1,112,427.1L112,427.1z M112,427.1"/>
		<path class="st6" d="M112,431.7c0,64.1,122,116,272.5,116c150.5,0,272.5-51.9,272.5-116c0-64.1-122-116-272.5-116
			C234,315.7,112,367.6,112,431.7L112,431.7z M112,431.7"/>
		<path class="st7" d="M112,436.2c0,64.1,122,116,272.5,116c150.5,0,272.5-51.9,272.5-116c0-64.1-122-116-272.5-116
			C234,320.2,112,372.1,112,436.2L112,436.2z M112,436.2"/>
		<path class="st5" d="M112,422.6c0,64.1,122,116,272.5,116c150.5,0,272.5-51.9,272.5-116c0-64.1-122-116-272.5-116
			C234,306.6,112,358.5,112,422.6L112,422.6z M112,422.6"/>
	</g>
	<path class="st2" d="M188.4,359.8c0,64.1,122,116,272.5,116c150.5,0,272.5-51.9,272.5-116c0-64.1-122-116-272.5-116
		C310.4,243.8,188.4,295.8,188.4,359.8L188.4,359.8z M188.4,359.8"/>
	<path class="st2" d="M188.4,364.4c0,64.1,122,116,272.5,116c150.5,0,272.5-52,272.5-116s-122-116-272.5-116
		C310.4,248.3,188.4,300.3,188.4,364.4L188.4,364.4z M188.4,364.4"/>
	<path class="st3" d="M188.4,368.5c0,64.1,122,116,272.5,116c150.5,0,272.5-51.9,272.5-116s-122-116-272.5-116
		C310.4,252.5,188.4,304.4,188.4,368.5L188.4,368.5z M188.4,368.5"/>
	<path class="st4" d="M188.4,355.3c0,64.1,122,116,272.5,116c150.5,0,272.5-51.9,272.5-116c0-64.1-122-116-272.5-116
		C310.4,239.3,188.4,291.2,188.4,355.3L188.4,355.3z M188.4,355.3"/>
	<g>
		<defs>
			<rect id="SVGID_3_" x="112.1" y="223" width="800.9" height="577.9"/>
		</defs>
		<clipPath id="SVGID_4_">
			<use xlink:href="#SVGID_3_"  style="overflow:visible;"/>
		</clipPath>
		<path class="st8" d="M383.7,316.5l34.7,20.2c11.1,6.6,19.4,10.7,23.5,12.4v0.4c-10.7,3.3-35.5,13.2-73.1,28.5l-5.8,23.5l82.2-34.7
			l-2.9,40.9l21.1,3.7l1.2-49.5l28.5,2.5l2.1,53.3l26.4,5l-5.4-56.2l52.4,4.5l-5.4-25.6l-49.1-2.5l-3.7-38.8l-19.8,1.2l1.7,37.2
			l-27.3-1.2l0.8-35.5l-16.5,0.4l-2.1,28.9l-59.9-33.9L383.7,316.5z M383.7,316.5"/>
		<path class="st9" d="M418.8,572.1c0,81.4,43.4,156.7,114,197.4c70.5,40.7,157.4,40.7,227.9,0c70.5-40.7,114-116,114-197.4
			c0-81.4-43.4-156.7-114-197.4c-70.5-40.7-157.4-40.7-227.9,0C462.2,415.4,418.8,490.6,418.8,572.1L418.8,572.1z M418.8,572.1"/>
	</g>
	<path class="st10" d="M701.2,451.1l-35.9,66.1c-9.9,18.2-14.9,31-17.3,35.1h-0.4c-6.6-12.4-24.8-45.4-54.5-99.1h-34.3l64,107.4
		h-53.7v24.8h66.1v28.9h-66.1v28.9h66.1v49.5h24.8v-49.5h61.9v-28.9h-61.9v-28.9h61.9v-24.8h-51.2l64.8-107.4h-34.3V451.1z
		 M701.2,451.1"/>
	<path class="st3" d="M840.8,240.1l-21.9,22.3c-5.8,6.2-9.5,10.3-11.1,12.4h-0.4c-0.8-6.6-4.1-22.3-9.5-47.1l-13.6-3.7l12.4,50.4
		l-20.6-5.8l-2.9,9.5l23.9,7l-3.7,13.2l-23.9-7l-2.9,9.5l23.9,7l-5.4,19l12,3.3l5.4-19l23.1,6.6l2.9-9.5l-23.1-6.6l3.7-13.2
		l23.1,6.6l2.9-9.5l-19.8-5.8l38-35.9L840.8,240.1z M840.8,240.1"/>
	<path class="st4" d="M892.4,381.7l-2.1,16.9c-0.4,4.5-0.8,7.4-0.8,9.1c-2.5-2.5-9.1-8.3-19.8-16.9l-7,2.9L885,411l-10.7,4.5l2.1,5
		l12.8-5l2.9,7l-12.8,5l2.1,5l12.8-5l4.1,9.9l6.2-2.5l-4.1-9.9l12.4-5l-2.1-5l-12.4,5l-2.9-7l12.4-5l-2.1-5l-10.3,4.1l4.1-28.1
		L892.4,381.7z M892.4,381.7"/>
</g>
</svg>
