<?xml version="1.0" encoding="utf-8"?>
<!-- Generator: Adobe Illustrator 21.0.0, SVG Export Plug-In . SVG Version: 6.00 Build 0)  -->
<svg version="1.1" id="图层_1" xmlns="http://www.w3.org/2000/svg" xmlns:xlink="http://www.w3.org/1999/xlink" x="0px" y="0px"
	 viewBox="0 0 1024 1024" style="enable-background:new 0 0 1024 1024;" xml:space="preserve">
<style type="text/css">
	.st0{fill:#FF3341;}
	.st1{display:none;}
	.st2{display:inline;fill:#FFAD33;}
	.st3{display:inline;fill:#FFFFFF;}
	.st4{display:inline;}
	.st5{fill:#FFFFFF;}
</style>
<g>
	<path class="st0" d="M511.9,72.1C265.1,72.1,65,272.2,65,519s200.1,446.9,446.9,446.9S958.8,765.8,958.8,519S758.7,72.1,511.9,72.1
		L511.9,72.1z M329,346.7h365.9c16.7,0,31.5,7.3,42,18.7L512.1,501.9L291.3,361.2C301.3,352.3,314.5,346.7,329,346.7L329,346.7z
		 M271.8,403.8c0-6.5,1.3-12.7,3.3-18.5L434.7,487L271.8,628.2V403.8z M694.8,691.3H329c-22.1,0-41.1-12.7-50.6-31.1
		c1-0.5,2.1-1,3-1.8l178.9-155l43.8,27.9c0.1,0.1,0.3,0.1,0.4,0.2c0.8,0.5,1.6,0.8,2.5,1.1c0.4,0.1,0.8,0.4,1.2,0.5
		c1.1,0.3,2.3,0.5,3.5,0.5c0.1,0,0.2,0,0.3,0h0c0.1,0,0.2,0,0.3,0c1.1,0,2.3-0.2,3.4-0.5c0.4-0.1,0.8-0.3,1.2-0.5
		c0.8-0.3,1.6-0.6,2.4-1c0.1-0.1,0.2-0.1,0.3-0.2l52-31.6l177,153.4C740.6,675.3,719.7,691.3,694.8,691.3L694.8,691.3z M752,617.8
		L597.5,484l152.9-92.9c0.9,4.1,1.6,8.3,1.6,12.7L752,617.8L752,617.8z M752,617.8"/>
</g>
<g class="st1">
	<circle class="st2" cx="512" cy="518.6" r="448"/>
	<path class="st3" d="M660,845.1H364c-32.3,0-58.5-26.2-58.5-58.5v-536c0-32.3,26.2-58.5,58.5-58.5h296c32.3,0,58.5,26.2,58.5,58.5
		v536C718.5,818.9,692.3,845.1,660,845.1z M364,245.1c-3,0-5.5,2.5-5.5,5.5v536c0,3,2.5,5.5,5.5,5.5h296c3,0,5.5-2.5,5.5-5.5v-536
		c0-3-2.5-5.5-5.5-5.5H364z"/>
	<g class="st4">
		<rect x="347.9" y="751.6" class="st5" width="331.5" height="76"/>
	</g>
	<circle class="st2" cx="513.6" cy="794.6" r="30"/>
</g>
</svg>
