<svg id="图层_1" data-name="图层 1" xmlns="http://www.w3.org/2000/svg" viewBox="0 0 570 206"><defs><style>.cls-1,.cls-2{fill:#ff3341;}.cls-2{font-size:16px;font-family:KohinoorBangla-Regular, Kohinoor Bangla;}</style></defs><title>logo</title><path class="cls-1" d="M101.56,191.89h-15v-77h11V107L60.62,91v14.28H72.07v86.6H56.62v-82.6h-18v82.6H14.31L31.05,34.37H161.82l12.35,151.79H152.82V109.28h-3.9l-11.42-10-9.29,10h-4.88v5.59h11.74V181H119.32V118.88H101.56Zm-11-4h7v-69h-7Zm-29.94,0h7.45v-78.6H60.62Zm-41.86,0H34.57v-82.6h22V84.91l44.94,19.49v10.48h17.76v-9.59h7.14l10.75-11.51,13.2,11.51h6.4v76.88h13L158.13,38.37H34.65ZM123.32,177h7.74V118.88h-7.74Z"/><rect class="cls-1" x="66.23" y="36.94" width="4" height="13.52"/><rect class="cls-1" x="118.3" y="36.94" width="4" height="13.52"/><path class="cls-1" d="M122.3,36.94h-4c0-14-10.78-25.42-24-25.42s-24,11.4-24,25.42h-4c0-16.22,12.58-29.42,28-29.42S122.3,20.72,122.3,36.94Z"/><circle class="cls-1" cx="68.23" cy="50.46" r="4.11"/><circle class="cls-1" cx="120.3" cy="50.46" r="4.11" transform="translate(11.84 122.95) rotate(-56.51)"/><rect class="cls-1" x="197.65" y="27.69" width="82.96" height="5.18"/><rect class="cls-1" x="209.43" y="41.88" width="57.85" height="5.18"/><rect class="cls-1" x="210.3" y="60.61" width="57.85" height="5.18"/><rect class="cls-1" x="187.07" y="60.61" width="42.64" height="5.18" transform="translate(145.19 271.59) rotate(-90)"/><rect class="cls-1" x="209.43" y="79.33" width="57.85" height="5.18"/><rect class="cls-1" x="248.55" y="60.61" width="42.64" height="5.18" transform="translate(206.68 333.07) rotate(-90)"/><rect class="cls-1" x="203.5" y="52.66" width="71.26" height="5.18" transform="translate(183.88 294.39) rotate(-90)"/><rect class="cls-1" x="205.54" y="90.89" width="65.64" height="5.18"/><rect class="cls-1" x="187.37" y="108.39" width="25.76" height="5.18" transform="translate(89.26 311.23) rotate(-90)"/><rect class="cls-1" x="191.69" y="117.31" width="31.92" height="5.18" transform="translate(87.75 327.56) rotate(-90)"/><rect class="cls-1" x="205.06" y="130.68" width="60.37" height="5.18" transform="translate(470.49 266.55) rotate(-180)"/><rect class="cls-1" x="258.46" y="124.76" width="17.02" height="5.18" transform="translate(139.61 394.32) rotate(-90)"/><rect class="cls-1" x="224.76" y="110.51" width="26.1" height="5.18" transform="translate(475.62 226.2) rotate(-180)"/><rect class="cls-1" x="266.17" y="121.42" width="23.71" height="5.18" transform="translate(154.01 402.03) rotate(-90)"/><rect class="cls-1" x="267.84" y="90.61" width="11.85" height="5.18" transform="translate(180.56 366.98) rotate(-90)"/><rect class="cls-1" x="289.19" y="52.05" width="82.96" height="5.18"/><rect class="cls-1" x="292" y="75.12" width="116.24" height="5.18" transform="translate(272.4 427.83) rotate(-90)"/><rect class="cls-1" x="273.59" y="93.65" width="79.3" height="5.18" transform="translate(216.99 409.48) rotate(-90)"/><rect class="cls-1" x="380.48" y="108.54" width="56.74" height="5.18" transform="translate(553.71 509.28) rotate(-125.2)"/><rect class="cls-1" x="370.14" y="108.54" width="56.19" height="5.18" transform="translate(87.32 383.66) rotate(-56.83)"/><rect class="cls-1" x="380.77" y="44.36" width="34.88" height="5.18"/><rect class="cls-1" x="358.12" y="51.77" width="69.69" height="5.18" transform="translate(338.6 447.33) rotate(-90)"/><rect class="cls-1" x="392.65" y="66.21" width="40.81" height="5.18" transform="translate(344.26 481.86) rotate(-90)"/><polygon class="cls-1" points="455.4 31.48 434.75 31.48 434.75 26.29 456.35 26.29 455.4 31.48"/><rect class="cls-1" x="417.41" y="102.61" width="61.27" height="5.18" transform="translate(342.84 553.24) rotate(-90)"/><rect class="cls-1" x="436.51" y="130.77" width="14.13" height="5.18"/><rect class="cls-1" x="424.75" y="73.28" width="38.98" height="5.18"/><rect class="cls-1" x="447.48" y="62.86" width="55.37" height="5.18" transform="translate(409.71 540.62) rotate(-90)"/><rect class="cls-1" x="477.11" y="51.69" width="26.65" height="5.18"/><rect class="cls-1" x="477.76" y="72.1" width="26" height="5.18"/><rect class="cls-1" x="431.76" y="75.12" width="116.51" height="5.18" transform="translate(412.3 567.73) rotate(-90)"/><rect class="cls-1" x="498.47" y="52.12" width="30.98" height="5.18" transform="translate(459.25 568.68) rotate(-90)"/><rect class="cls-1" x="514.98" y="52.12" width="37.36" height="5.18"/><rect class="cls-1" x="510.42" y="91.45" width="83.85" height="5.18" transform="translate(458.29 646.38) rotate(-90)"/><rect class="cls-1" x="487.57" y="94.05" width="78.66" height="5.18" transform="translate(430.27 623.54) rotate(-90)"/><rect class="cls-1" x="500.03" y="93.78" width="79.19" height="5.18" transform="translate(443.25 636) rotate(-90)"/><rect class="cls-1" x="197.26" y="178.06" width="112" height="1"/><text class="cls-2" transform="translate(318.36 182.23)">Hui Cai Hao Wu</text><rect class="cls-1" x="443.04" y="178.06" width="112" height="1"/><rect class="cls-1" x="426.42" y="48.22" width="48.75" height="5.18" transform="translate(356.33 494.52) rotate(-84.41)"/></svg>