<?xml version="1.0" encoding="utf-8"?>
<!-- Generator: Adobe Illustrator 21.0.0, SVG Export Plug-In . SVG Version: 6.00 Build 0)  -->
<svg version="1.1" id="图层_1" xmlns="http://www.w3.org/2000/svg" xmlns:xlink="http://www.w3.org/1999/xlink" x="0px" y="0px"
	 viewBox="0 0 1024 1024" style="enable-background:new 0 0 1024 1024;" xml:space="preserve">
<style type="text/css">
	.st0{fill:#1E9CF0;}
	.st1{fill:#FFFFFF;}
</style>
<g>
	<path class="st0" d="M64,511.1C64,758.5,264.5,959,511.9,959c247.4,0,447.9-200.5,447.9-447.9c0-247.4-200.5-447.9-447.9-447.9
		C264.5,63.2,64,263.8,64,511.1L64,511.1z M64,511.1"/>
	<path class="st1" d="M326.9,456.6c-2.7,7.1,1.2,11.5,0,38.4c-0.3,7.2-31.5,40-43.9,74c-12.3,33.7-14,69,5,82.8
		c19,13.8,36.6-46.1,38.9-37.4c1.1,4,2.3,8,3.8,11.8c6.1,16.3,16.3,34.4,31,51.3c3,3.4-18.3,9.7-31,31.4
		c-12.8,21.7,3.7,61.1,67.1,61.1c81.8,0,100.1-28.8,101.8-28.6c6.1,0.5,6.5,0,13,0c7.9,0,4.6,0.6,12,0c4-0.3,43.7,34.4,98.8,28.6
		c93.8-9.9,79.5-41.3,72.1-61.1c-7.7-20.7-34.9-30.4-33.7-31.7c22.5-24.8,26-40.1,33.7-62.9c3.1-9.4,24.9,51.6,41.7,37.4
		c7-5.9,21-30.6,7-82.8c-14-52.3-41-64.2-40.4-74c1.2-20.4,0.5-34.7-0.5-38.4c-5-18-15.4-14-15.4-18c0-103.4-77.8-187.3-173.8-187.3
		c-96,0-173.8,83.9-173.8,187.3C340.2,446.9,332.9,440.8,326.9,456.6L326.9,456.6z M326.9,456.6"/>
</g>
</svg>
