<?xml version="1.0" encoding="utf-8"?>
<!-- Generator: Adobe Illustrator 21.0.0, SVG Export Plug-In . SVG Version: 6.00 Build 0)  -->
<svg version="1.1" id="图层_1" xmlns="http://www.w3.org/2000/svg" xmlns:xlink="http://www.w3.org/1999/xlink" x="0px" y="0px"
	 viewBox="0 0 1024 1024" style="enable-background:new 0 0 1024 1024;" xml:space="preserve">
<style type="text/css">
	.st0{display:none;}
	.st1{display:inline;fill:#40B6FF;}
	.st2{display:inline;}
	.st3{fill:#FFFFFF;}
	.st4{opacity:0.6;}
	.st5{fill:#40B6FF;}
</style>
<g class="st0">
	<circle class="st1" cx="512" cy="512" r="448"/>
	<g class="st2">
		<path class="st3" d="M701.5,544h-380c-17.6,0-32-14.4-32-32v0c0-17.6,14.4-32,32-32h380c17.6,0,32,14.4,32,32v0
			C733.5,529.6,719.1,544,701.5,544z"/>
		<path class="st3" d="M543.5,322v380c0,17.6-14.4,32-32,32h0c-17.6,0-32-14.4-32-32V322c0-17.6,14.4-32,32-32h0
			C529.1,290,543.5,304.4,543.5,322z"/>
	</g>
</g>
<g class="st4">
	<path class="st3" d="M65,511.2c0,246.9,200.1,447,447,447c246.9,0,447-200.1,447-447s-200.1-447-447-447
		C265.1,64.1,65,264.3,65,511.2L65,511.2z M65,511.2"/>
	<path class="st5" d="M509.6,913.7c-224.6,0-406.6-182-406.6-406.7c0-224.6,182-406.6,406.6-406.6c224.6,0,406.7,182.1,406.7,406.6
		C916.2,731.7,734.1,913.7,509.6,913.7L509.6,913.7z M598.7,653.5l16.3-14.2c0,0,4.1-37.3,11.2-50.8c15.8-30.4,32.5-81.3,32.5-81.3
		s16.3-11.8,16.3-32.5c0-20.7-16.3-32.6-16.3-32.6s6.1-57.6,6.1-97.6c0-84-52.8-130.1-147.6-130.1c-94.8,0-164,39.2-164,130.1
		c0,40,12.7,97.6,12.7,97.6s-16.3,11.9-16.3,32.6c0,20.7,16.3,32.5,16.3,32.5s19,59,32.5,81.3c7.9,13,11.2,50.8,11.2,50.8l16.3,14.2
		c0,0,7.7,82.5-16.3,97.6C388,764.7,295.5,782.7,273,795.8c1.4,1.4,100.3,86.7,239.4,86.7c139.2,0,238.3-85.6,238.3-87.2
		c-24-13.1-114.4-30.8-135.7-44.3C591,736,598.7,653.5,598.7,653.5L598.7,653.5z M598.7,653.5"/>
</g>
</svg>
